<!DOCTYPE svg PUBLIC "-//W3C//DTD SVG 20010904//EN" "http://www.w3.org/TR/2001/REC-SVG-20010904/DTD/svg10.dtd">
<svg version="1.0" xmlns="http://www.w3.org/2000/svg" width="1200px" height="1200px" viewBox="0 0 12000 12000" preserveAspectRatio="xMidYMid meet">
<g id="layer101" fill="#000000" stroke="none">
 <path d="M5625 10609 c-144 -14 -367 -48 -499 -75 -66 -14 -146 -29 -176 -34 -61 -11 -377 -101 -455 -130 -195 -73 -324 -125 -410 -165 -97 -44 -132 -62 -300 -149 -83 -43 -226 -126 -235 -136 -3 -3 -43 -30 -90 -60 -97 -62 -250 -169 -265 -186 -5 -6 -44 -37 -85 -69 -243 -190 -521 -468 -715 -715 -33 -41 -69 -86 -82 -100 -29 -33 -77 -101 -160 -230 -37 -58 -75 -114 -85 -124 -10 -11 -18 -24 -18 -28 0 -5 -12 -27 -27 -51 -68 -108 -313 -602 -313 -634 0 -4 -19 -55 -41 -113 -22 -58 -49 -130 -59 -160 -40 -122 -120 -419 -129 -480 -6 -36 -21 -126 -35 -200 -53 -293 -61 -390 -61 -770 0 -380 8 -477 61 -770 14 -74 29 -164 35 -200 9 -61 89 -358 129 -480 10 -30 37 -102 59 -160 22 -58 41 -109 41 -113 0 -33 255 -547 314 -634 14 -21 26 -42 26 -48 0 -6 8 -20 18 -31 10 -10 48 -66 85 -124 83 -129 131 -197 160 -230 13 -14 49 -59 82 -100 193 -246 466 -519 715 -715 41 -32 86 -69 100 -82 33 -29 101 -77 230 -160 58 -37 114 -75 124 -85 11 -10 25 -18 31 -18 6 0 27 -12 48 -26 87 -59 601 -314 634 -314 4 0 55 -19 113 -41 139 -54 183 -68 388 -125 l172 -48 0 -393 0 -393 525 0 525 0 0 333 0 334 193 6 c195 7 404 30 602 67 61 12 139 26 175 31 61 9 358 89 480 129 30 10 102 37 160 59 58 22 109 41 113 41 32 0 526 245 634 313 24 15 46 27 51 27 4 0 17 8 28 18 10 10 66 48 124 85 129 83 197 131 230 160 14 13 59 50 100 82 249 196 522 469 715 715 33 41 69 86 82 100 29 33 77 101 160 230 37 58 75 114 85 124 10 11 18 24 18 28 0 5 12 27 27 51 68 108 313 602 313 634 0 4 19 55 41 113 22 58 49 130 59 160 40 122 120 419 129 480 6 36 21 126 35 200 53 292 61 391 61 765 0 356 -6 444 -46 680 -47 281 -71 398 -99 495 -18 58 -45 152 -60 210 -16 58 -34 114 -39 125 -14 29 -69 170 -93 240 -12 33 -36 89 -54 125 -18 36 -41 88 -52 116 -11 28 -46 96 -76 150 -31 54 -56 103 -56 107 0 4 -20 39 -45 77 -25 38 -45 71 -45 74 0 9 -71 119 -90 141 -10 11 -30 44 -46 73 -15 28 -31 52 -35 52 -3 0 -19 19 -34 43 -38 57 -224 295 -238 304 -7 5 -25 26 -42 48 -41 55 -389 400 -425 422 -17 9 -30 21 -30 25 0 9 -154 132 -260 208 -41 30 -86 64 -99 77 -13 13 -29 23 -36 23 -7 0 -39 20 -72 44 -32 23 -92 62 -133 86 -41 23 -82 49 -90 56 -8 7 -44 27 -80 45 -36 17 -99 51 -141 75 -42 24 -81 44 -88 44 -6 0 -56 22 -111 49 -54 28 -114 54 -132 59 -33 10 -216 81 -275 108 -17 8 -39 14 -50 14 -10 0 -54 12 -98 26 -166 54 -242 75 -300 84 -33 5 -103 18 -155 29 -121 26 -244 47 -390 67 -135 19 -733 28 -875 13z m595 -1164 c248 -8 366 -27 688 -109 123 -32 275 -82 347 -116 11 -5 31 -12 45 -15 29 -8 388 -185 440 -217 153 -94 287 -183 323 -212 23 -20 87 -72 142 -117 141 -115 309 -283 431 -429 57 -69 120 -144 140 -167 29 -36 118 -170 212 -323 32 -52 209 -411 217 -440 3 -14 10 -34 15 -45 75 -162 182 -571 210 -800 27 -220 27 -690 0 -910 -28 -229 -135 -638 -210 -800 -5 -11 -12 -31 -15 -45 -9 -30 -184 -393 -194 -400 -4 -3 -22 -32 -40 -65 -49 -87 -157 -252 -197 -299 -18 -23 -80 -97 -137 -166 -457 -551 -1116 -960 -1817 -1129 -260 -63 -441 -90 -657 -98 l-163 -6 0 1951 0 1952 1045 0 1045 0 -2 518 -3 517 -1567 3 -1568 2 0 -2390 0 -2390 -67 26 c-38 14 -101 36 -140 49 -40 14 -113 45 -163 70 -49 25 -94 45 -100 45 -6 0 -53 25 -105 55 -53 30 -98 55 -100 55 -8 0 -109 64 -124 77 -7 8 -32 23 -55 35 -22 11 -43 24 -46 27 -3 4 -41 32 -85 63 -44 31 -106 79 -138 107 -32 28 -62 51 -66 51 -13 0 -352 341 -404 405 -26 33 -81 105 -123 160 -41 55 -82 108 -89 117 -8 10 -23 35 -34 57 -11 21 -27 45 -35 53 -39 40 -286 521 -286 559 0 9 -3 19 -6 22 -7 7 -16 31 -68 176 -29 82 -106 388 -131 521 -44 231 -48 820 -9 1075 38 243 131 588 201 745 4 8 7 20 8 25 3 19 39 101 77 173 21 40 38 74 38 77 0 7 87 174 112 215 84 137 183 287 212 323 20 23 83 98 140 167 122 146 290 314 431 429 55 45 118 97 141 115 47 40 212 148 299 197 33 18 62 36 65 40 7 10 370 185 400 194 14 3 34 10 45 15 161 75 571 182 800 210 92 12 434 29 470 24 11 -2 103 -6 205 -9z"/>
 </g>
<g id="layer102" fill="#fbfbfb" stroke="none">
 <path d="M5625 10609 c-144 -14 -367 -48 -499 -75 -66 -14 -146 -29 -176 -34 -61 -11 -377 -101 -455 -130 -195 -73 -324 -125 -410 -165 -97 -44 -132 -62 -300 -149 -83 -43 -226 -126 -235 -136 -3 -3 -43 -30 -90 -60 -97 -62 -250 -169 -265 -186 -5 -6 -44 -37 -85 -69 -243 -190 -521 -468 -715 -715 -33 -41 -69 -86 -82 -100 -29 -33 -77 -101 -160 -230 -37 -58 -75 -114 -85 -124 -10 -11 -18 -24 -18 -28 0 -5 -12 -27 -27 -51 -68 -108 -313 -602 -313 -634 0 -4 -19 -55 -41 -113 -22 -58 -49 -130 -59 -160 -40 -122 -120 -419 -129 -480 -6 -36 -21 -126 -35 -200 -53 -293 -61 -390 -61 -770 0 -380 8 -477 61 -770 14 -74 29 -164 35 -200 9 -61 89 -358 129 -480 10 -30 37 -102 59 -160 22 -58 41 -109 41 -113 0 -33 255 -547 314 -634 14 -21 26 -42 26 -48 0 -6 8 -20 18 -31 10 -10 48 -66 85 -124 83 -129 131 -197 160 -230 13 -14 49 -59 82 -100 193 -246 466 -519 715 -715 41 -32 86 -69 100 -82 33 -29 101 -77 230 -160 58 -37 114 -75 124 -85 11 -10 25 -18 31 -18 6 0 27 -12 48 -26 87 -59 601 -314 634 -314 4 0 55 -19 113 -41 139 -54 183 -68 388 -125 l172 -48 0 -393 0 -393 525 0 525 0 0 333 0 334 193 6 c195 7 404 30 602 67 61 12 139 26 175 31 61 9 358 89 480 129 30 10 102 37 160 59 58 22 109 41 113 41 32 0 526 245 634 313 24 15 46 27 51 27 4 0 17 8 28 18 10 10 66 48 124 85 129 83 197 131 230 160 14 13 59 50 100 82 249 196 522 469 715 715 33 41 69 86 82 100 29 33 77 101 160 230 37 58 75 114 85 124 10 11 18 24 18 28 0 5 12 27 27 51 68 108 313 602 313 634 0 4 19 55 41 113 22 58 49 130 59 160 40 122 120 419 129 480 6 36 21 126 35 200 53 292 61 391 61 765 0 356 -6 444 -46 680 -47 281 -71 398 -99 495 -18 58 -45 152 -60 210 -16 58 -34 114 -39 125 -14 29 -69 170 -93 240 -12 33 -36 89 -54 125 -18 36 -41 88 -52 116 -11 28 -46 96 -76 150 -31 54 -56 103 -56 107 0 4 -20 39 -45 77 -25 38 -45 71 -45 74 0 9 -71 119 -90 141 -10 11 -30 44 -46 73 -15 28 -31 52 -35 52 -3 0 -19 19 -34 43 -38 57 -224 295 -238 304 -7 5 -25 26 -42 48 -41 55 -389 400 -425 422 -17 9 -30 21 -30 25 0 9 -154 132 -260 208 -41 30 -86 64 -99 77 -13 13 -29 23 -36 23 -7 0 -39 20 -72 44 -32 23 -92 62 -133 86 -41 23 -82 49 -90 56 -8 7 -44 27 -80 45 -36 17 -99 51 -141 75 -42 24 -81 44 -88 44 -6 0 -56 22 -111 49 -54 28 -114 54 -132 59 -33 10 -216 81 -275 108 -17 8 -39 14 -50 14 -10 0 -54 12 -98 26 -166 54 -242 75 -300 84 -33 5 -103 18 -155 29 -121 26 -244 47 -390 67 -135 19 -733 28 -875 13z m984 -68 c143 -23 286 -50 421 -82 47 -11 108 -25 135 -31 94 -21 430 -132 510 -168 33 -15 82 -35 108 -44 27 -9 94 -39 149 -66 56 -28 106 -50 113 -50 6 0 32 -13 58 -30 25 -16 89 -51 140 -79 52 -27 117 -65 144 -85 28 -20 53 -36 57 -36 11 0 248 -160 287 -194 20 -17 71 -58 115 -91 246 -188 552 -494 739 -739 33 -44 74 -95 91 -115 34 -39 194 -276 194 -287 0 -4 16 -29 36 -57 20 -27 58 -92 85 -144 28 -51 63 -115 79 -140 17 -26 30 -52 30 -58 0 -7 22 -57 50 -113 27 -55 57 -122 66 -149 9 -26 29 -75 44 -108 36 -80 147 -416 168 -510 6 -27 20 -88 31 -135 31 -133 59 -276 83 -427 20 -127 22 -174 22 -603 0 -429 -2 -476 -22 -603 -24 -151 -52 -294 -83 -427 -11 -47 -25 -107 -31 -135 -21 -94 -132 -430 -168 -510 -15 -33 -35 -82 -44 -108 -9 -27 -39 -94 -66 -149 -28 -56 -50 -106 -50 -113 0 -6 -13 -32 -30 -58 -16 -25 -51 -89 -79 -140 -27 -52 -65 -117 -85 -144 -20 -28 -36 -53 -36 -57 0 -11 -160 -248 -194 -287 -17 -20 -58 -71 -91 -115 -187 -245 -492 -550 -739 -739 -43 -33 -97 -76 -120 -95 -23 -19 -93 -68 -156 -109 -63 -41 -144 -93 -180 -117 -36 -24 -104 -63 -152 -88 -48 -25 -108 -59 -134 -76 -27 -16 -53 -30 -59 -30 -7 0 -57 -22 -113 -50 -55 -27 -122 -57 -149 -66 -26 -9 -75 -29 -108 -44 -80 -36 -416 -147 -510 -168 -27 -6 -88 -20 -135 -31 -310 -73 -504 -99 -792 -107 l-238 -7 2 539 3 539 155 6 c287 12 650 78 900 163 52 18 120 40 150 50 30 10 84 32 120 48 36 17 85 38 110 48 71 29 299 148 370 194 190 124 299 198 331 228 20 18 71 62 115 98 123 101 270 247 374 370 52 62 110 129 128 149 30 32 105 142 228 331 46 71 165 299 194 370 10 25 31 74 48 110 16 36 38 90 48 120 10 30 32 98 50 150 61 178 121 463 149 705 20 171 20 539 0 710 -28 242 -88 527 -149 705 -18 52 -40 120 -50 150 -10 30 -32 84 -48 120 -17 36 -38 85 -48 110 -29 71 -148 299 -194 370 -116 178 -199 299 -230 335 -20 22 -84 96 -144 165 -116 134 -230 245 -357 350 -43 36 -94 80 -114 98 -32 30 -141 104 -331 228 -71 46 -299 165 -370 194 -25 10 -74 31 -110 48 -36 16 -90 38 -120 48 -30 10 -98 32 -150 50 -125 43 -221 67 -415 104 -245 46 -394 60 -645 60 -251 0 -400 -14 -645 -60 -194 -37 -290 -61 -415 -104 -52 -18 -120 -40 -150 -50 -30 -10 -84 -32 -120 -48 -36 -17 -85 -38 -110 -48 -71 -29 -299 -148 -370 -194 -190 -124 -299 -198 -331 -228 -20 -18 -71 -62 -115 -98 -123 -101 -270 -247 -374 -370 -52 -62 -110 -129 -128 -149 -30 -32 -105 -142 -228 -331 -46 -71 -165 -299 -194 -370 -10 -25 -31 -74 -48 -110 -16 -36 -38 -90 -48 -120 -10 -30 -32 -98 -50 -150 -61 -178 -121 -463 -149 -705 -20 -171 -20 -539 0 -710 28 -242 88 -527 149 -705 18 -52 40 -120 50 -150 10 -30 32 -84 48 -120 17 -36 38 -85 48 -110 29 -71 148 -299 194 -370 123 -189 198 -299 228 -331 18 -20 76 -87 128 -149 104 -123 251 -269 374 -370 44 -36 95 -80 115 -98 32 -30 141 -104 331 -228 71 -46 299 -165 370 -194 25 -10 74 -31 110 -48 36 -16 90 -38 120 -47 30 -10 78 -26 105 -36 l50 -17 3 -561 2 -561 -42 6 c-97 14 -471 133 -592 188 -28 13 -73 31 -100 40 -26 9 -93 39 -148 66 -56 28 -106 50 -113 50 -7 0 -29 11 -49 25 -20 13 -80 47 -133 75 -53 28 -127 70 -163 94 -36 24 -117 76 -180 117 -63 41 -133 90 -156 109 -23 19 -77 62 -120 95 -247 189 -550 492 -739 739 -33 43 -76 97 -95 120 -19 23 -68 93 -109 156 -41 63 -93 144 -117 180 -24 36 -66 110 -94 163 -28 53 -62 113 -75 133 -14 20 -25 42 -25 49 0 7 -22 57 -50 113 -27 55 -57 122 -66 149 -9 26 -29 75 -44 108 -36 80 -147 416 -168 510 -6 28 -20 88 -31 135 -31 133 -59 276 -83 427 -20 127 -22 174 -22 603 0 429 2 476 22 603 24 151 52 294 83 427 11 47 25 108 31 135 21 94 132 430 168 510 15 33 35 82 44 108 9 27 39 94 66 149 28 56 50 106 50 113 0 6 14 32 30 59 17 26 51 86 76 134 25 48 64 116 88 152 24 36 76 117 117 180 41 63 90 133 109 156 19 23 62 77 95 120 189 247 494 552 739 739 44 33 95 74 115 91 39 34 276 194 287 194 4 0 29 16 57 36 27 20 92 58 144 85 51 28 115 63 140 79 26 17 52 30 58 30 7 0 57 22 113 50 55 27 122 57 149 66 26 9 75 29 108 44 82 37 416 147 515 169 30 7 82 19 115 27 247 58 463 94 625 104 69 5 298 7 510 5 326 -3 406 -7 519 -24z m-389 -1096 c248 -8 366 -27 688 -109 123 -32 275 -82 347 -116 11 -5 31 -12 45 -15 29 -8 388 -185 440 -217 153 -94 287 -183 323 -212 23 -20 87 -72 142 -117 141 -115 309 -283 431 -429 57 -69 120 -144 140 -167 29 -36 118 -170 212 -323 32 -52 209 -411 217 -440 3 -14 10 -34 15 -45 75 -162 182 -571 210 -800 27 -220 27 -690 0 -910 -28 -229 -135 -638 -210 -800 -5 -11 -12 -31 -15 -45 -9 -30 -184 -393 -194 -400 -4 -3 -22 -32 -40 -65 -49 -87 -157 -252 -197 -299 -18 -23 -80 -97 -137 -166 -457 -551 -1116 -960 -1817 -1129 -260 -63 -441 -90 -657 -98 l-163 -6 0 1951 0 1952 1045 0 1045 0 -2 518 -3 517 -1567 3 -1568 2 0 -2390 0 -2390 -67 26 c-38 14 -101 36 -140 49 -40 14 -113 45 -163 70 -49 25 -94 45 -100 45 -6 0 -53 25 -105 55 -53 30 -98 55 -100 55 -8 0 -109 64 -124 77 -7 8 -32 23 -55 35 -22 11 -43 24 -46 27 -3 4 -41 32 -85 63 -44 31 -106 79 -138 107 -32 28 -62 51 -66 51 -13 0 -352 341 -404 405 -26 33 -81 105 -123 160 -41 55 -82 108 -89 117 -8 10 -23 35 -34 57 -11 21 -27 45 -35 53 -39 40 -286 521 -286 559 0 9 -3 19 -6 22 -7 7 -16 31 -68 176 -29 82 -106 388 -131 521 -44 231 -48 820 -9 1075 38 243 131 588 201 745 4 8 7 20 8 25 3 19 39 101 77 173 21 40 38 74 38 77 0 7 87 174 112 215 84 137 183 287 212 323 20 23 83 98 140 167 122 146 290 314 431 429 55 45 118 97 141 115 47 40 212 148 299 197 33 18 62 36 65 40 7 10 370 185 400 194 14 3 34 10 45 15 161 75 571 182 800 210 92 12 434 29 470 24 11 -2 103 -6 205 -9z m1830 -2490 l0 -485 -1045 0 -1045 0 0 -2860 0 -2860 -485 0 -485 0 0 3345 0 3345 1530 0 1530 0 0 -485z"/>
 </g>

</svg>